<svg version="1.1" id="Layer_1" xmlns="http://www.w3.org/2000/svg" xmlns:xlink="http://www.w3.org/1999/xlink" x="0px" y="0px"
	 width="100%" viewBox="0 0 496 496" enable-background="new 0 0 496 496" xml:space="preserve">
<path fill="#000000" opacity="1.000000" stroke="none" 
	d="
M248.670654,443.067261 
	C240.067261,413.162415 245.533646,385.085236 257.355713,357.671112 
	C260.137878,351.219543 265.857361,345.756012 267.236816,339.376404 
	C268.597168,333.085266 263.495361,326.345978 262.949524,319.331024 
	C262.414673,312.456787 262.854187,305.703094 264.144073,298.971527 
	C264.359985,297.844635 264.924133,296.763092 264.210449,295.292358 
	C260.365967,295.837128 257.524780,298.530823 254.333069,300.377106 
	C246.698746,304.793304 239.475632,309.948029 231.236862,313.266113 
	C226.418106,315.206787 221.423706,316.631744 216.168869,316.106262 
	C207.034622,315.192871 203.267258,308.918091 207.117996,300.600220 
	C210.473770,293.351501 214.224777,286.272949 218.081070,279.273438 
	C220.479813,274.919556 222.695007,271.033936 222.357285,265.463043 
	C221.802261,256.307617 225.259247,247.796127 230.246201,240.111679 
	C232.623566,236.448410 233.019180,232.990479 231.540375,228.843323 
	C218.870255,193.311066 201.261017,160.351990 179.971664,129.298218 
	C177.481735,125.666290 173.751480,126.210793 171.664001,130.513596 
	C169.767700,134.422272 169.917404,138.623459 170.796906,142.747086 
	C173.259064,154.291107 178.413589,164.727448 184.382050,174.785934 
	C189.397354,183.238113 194.623199,191.565384 199.632278,200.021164 
	C200.665665,201.765594 202.550873,204.009628 200.439819,205.843643 
	C198.702103,207.353287 196.297134,206.331238 194.318985,205.363419 
	C189.024765,202.773163 184.880173,198.556961 180.111526,195.217682 
	C169.596710,187.854553 159.128494,180.451736 146.932449,175.989868 
	C143.438019,174.711472 139.887711,174.172623 136.168839,174.240082 
	C133.065109,174.296402 130.731293,175.582733 128.875153,177.925339 
	C125.704163,181.927383 126.126060,183.594681 130.889603,185.576492 
	C147.795609,192.610046 161.412872,203.245087 168.835831,220.521652 
	C172.335938,228.668015 173.749222,237.077957 170.915634,245.801117 
	C169.602356,249.844086 167.519073,251.036865 163.511078,248.636887 
	C156.060425,244.175400 148.955566,239.236481 142.090164,233.948746 
	C128.111984,223.182755 114.131332,212.417709 100.305885,201.457748 
	C97.695442,199.388367 96.019424,199.479034 94.145706,201.957169 
	C93.844933,202.354965 93.502754,202.721207 93.193985,203.113266 
	C86.611282,211.471802 86.423111,211.600708 92.405861,220.372986 
	C103.098930,236.051834 115.977737,250.162613 125.574875,266.647400 
	C129.007645,272.543823 133.002426,278.110260 136.543365,283.946991 
	C147.351288,301.762421 140.352936,323.867340 121.226265,332.591797 
	C113.262573,336.224365 97.865112,333.556366 91.603500,327.458923 
	C87.079651,323.053680 85.131027,313.682770 87.845238,308.948639 
	C89.375465,306.279633 91.859993,304.348511 94.792503,305.652283 
	C97.687294,306.939270 97.530464,309.895752 96.266090,312.605560 
	C95.984642,313.208801 95.727486,313.825226 95.413780,314.411285 
	C93.745178,317.528442 92.809158,320.818420 95.488380,323.689240 
	C97.891174,326.263824 101.074730,326.908691 104.647079,326.129791 
	C115.912994,323.673340 123.024841,315.241913 123.713135,303.606018 
	C124.272873,294.143494 122.552628,285.078430 119.648590,276.140198 
	C113.514763,257.261078 99.270027,235.055344 84.860306,222.449966 
	C81.950554,230.739853 80.884758,238.907837 81.678749,247.377533 
	C82.257874,253.555099 83.777283,259.479095 86.143188,265.203979 
	C86.522934,266.122833 86.868698,267.088867 87.014519,268.065308 
	C87.510658,271.387634 87.295845,274.811035 83.644630,276.002197 
	C79.461639,277.366821 78.038727,273.955078 77.207748,270.826050 
	C74.685738,261.329498 75.433495,251.631897 76.128960,242.018356 
	C76.703217,234.080261 77.353134,226.108124 79.475174,218.360825 
	C80.229195,215.607971 78.442451,213.598007 77.091263,211.522522 
	C68.447517,198.245361 58.917545,185.611755 49.236164,173.084091 
	C46.591396,169.661758 44.199440,166.041306 41.754936,162.468338 
	C40.772266,161.032043 40.193127,159.287888 41.300625,157.791794 
	C42.502934,156.167618 44.311356,156.716019 45.872452,157.398575 
	C47.389618,158.061981 49.036160,158.654160 50.274876,159.695267 
	C63.715919,170.991974 79.994881,178.181824 93.376190,189.548355 
	C95.196938,191.094986 96.933121,191.032135 98.802528,189.676392 
	C104.347580,185.654968 110.411591,183.196503 117.409966,183.633942 
	C119.795059,183.783051 121.068108,182.455109 121.845856,180.378342 
	C126.652756,167.542862 136.273438,165.102341 149.049133,171.304352 
	C157.278900,175.299545 165.134460,180.065155 173.162155,184.477432 
	C174.300110,185.102905 175.463196,185.682663 177.357788,186.671402 
	C175.749268,177.039703 171.625519,169.030838 169.007034,160.560501 
	C166.072540,151.067963 162.281738,141.655350 164.695984,131.367264 
	C165.034988,129.922638 165.441284,128.431213 166.151001,127.146240 
	C171.023895,118.323364 178.809280,117.876389 184.184708,126.228142 
	C197.712509,147.246216 211.849884,167.851227 226.009323,188.443268 
	C233.680710,199.599762 242.271378,209.963852 252.046036,219.354797 
	C254.332855,221.551834 256.676483,222.758469 259.968933,222.762756 
	C265.848755,222.770386 270.973572,225.217392 275.445343,228.917572 
	C285.583984,237.306900 295.642914,245.792557 305.768066,254.198318 
	C307.655792,255.765472 309.315552,257.743073 312.349884,258.334198 
	C316.282104,253.349716 317.301788,247.307648 317.619812,241.210495 
	C318.494324,224.446167 313.535980,209.004623 306.173401,194.232666 
	C301.861023,185.580566 297.401764,176.957809 289.924774,170.453339 
	C281.771149,163.360229 272.756439,158.436813 261.456116,159.278915 
	C256.149567,159.674377 252.314346,162.153809 250.129379,166.995453 
	C248.239395,171.183426 249.978607,173.400238 254.596909,172.878220 
	C257.442474,172.556564 259.353149,170.632980 261.412354,168.959595 
	C270.142242,161.865311 281.696259,165.135773 285.668182,175.793304 
	C286.868988,179.015411 285.936951,181.704330 283.717072,184.020203 
	C281.093689,186.757034 277.760773,186.834427 274.428802,185.849213 
	C271.727051,185.050308 269.602661,183.333527 269.497833,180.238586 
	C269.404877,177.494308 269.860626,174.363434 273.098938,174.035126 
	C276.424744,173.697952 274.440460,177.315567 275.526428,178.919647 
	C278.220978,176.309845 277.725677,173.844147 275.576477,171.391937 
	C273.357513,168.860168 270.731232,168.574188 267.965179,170.286865 
	C265.990143,171.509796 264.164001,172.978134 262.301971,174.377594 
	C259.297699,176.635498 255.992218,178.157059 252.189972,178.164795 
	C244.497955,178.180466 240.663986,171.854004 244.426071,165.190887 
	C247.351456,160.009628 251.343155,155.836365 257.009308,153.517685 
	C263.328217,150.931885 269.688629,148.434677 275.919495,145.649445 
	C287.567383,140.442795 297.964996,142.615524 307.521332,150.557663 
	C309.287170,152.025238 311.078186,153.462509 313.238647,155.224518 
	C313.440155,145.941757 303.905212,143.627853 301.088562,136.596115 
	C304.993927,134.833099 308.016876,136.460312 310.834900,137.972153 
	C321.609985,143.752792 331.600220,150.624664 339.861603,159.776001 
	C340.640808,160.639145 341.462921,161.467239 342.313934,162.259171 
	C342.514893,162.446167 342.913635,162.420578 343.772034,162.622009 
	C341.684540,152.055405 335.989258,144.255432 327.813080,138.018921 
	C325.641937,136.362885 322.789246,135.205612 322.995941,131.734940 
	C325.013275,130.122299 326.989044,130.549500 328.651886,131.740219 
	C339.384003,139.425186 351.935425,144.026596 362.637085,151.710663 
	C389.247955,170.817932 408.077972,195.316071 415.651245,227.819214 
	C422.214935,255.989304 416.005737,281.079529 399.197479,304.209045 
	C386.482391,321.705994 373.057678,338.438660 354.277527,349.814972 
	C333.851868,362.188080 314.512543,376.041382 296.108337,391.220703 
	C288.008789,397.901031 280.140076,404.854065 273.119690,412.696289 
	C265.053284,421.706848 260.509583,432.187561 260.122284,444.354706 
	C260.054871,446.472534 259.712830,448.729980 261.963531,450.143616 
	C264.094147,449.860992 264.365234,447.966583 265.133331,446.605591 
	C268.509796,440.622528 271.966492,438.703766 277.586182,439.818878 
	C282.000946,440.694855 286.501953,445.779388 287.313690,450.807465 
	C289.085632,461.783630 279.673676,470.029114 268.878296,466.649017 
	C259.824951,463.814362 254.238190,457.180145 250.793457,448.567261 
	C250.112793,446.865387 249.443298,445.159058 248.670654,443.067261 
M267.992950,409.526550 
	C282.719238,394.543823 297.660980,379.577972 315.672272,368.703766 
	C329.832703,360.154510 342.543671,350.139374 353.791595,338.307831 
	C365.965820,325.501953 377.681305,312.120361 382.128662,294.277893 
	C383.866608,287.305267 385.549408,280.229004 383.545258,271.466827 
	C375.112640,295.578217 359.073212,312.094055 340.424225,326.248779 
	C320.237793,341.570435 300.096985,356.894745 282.946045,375.689423 
	C275.513245,383.834564 265.744568,390.156616 262.314911,401.548615 
	C261.894958,402.943512 260.764160,404.144562 257.627289,403.707489 
	C256.265594,390.438629 261.296417,377.343658 260.262634,363.119995 
	C250.923340,386.803589 247.675797,410.161133 254.346619,434.535309 
	C257.050201,425.351379 261.402557,417.231415 267.992950,409.526550 
M354.247559,265.610413 
	C350.317871,273.215057 345.516754,280.184662 338.960968,285.770386 
	C334.770721,289.340607 330.262665,292.346252 323.445099,291.232361 
	C327.003357,277.910095 334.409943,266.021851 334.797852,250.854645 
	C328.744568,262.672760 321.711548,272.280304 312.362244,279.547119 
	C306.125885,284.394379 304.976257,293.331879 307.999573,299.191895 
	C311.386871,305.757416 317.992493,309.144348 325.759827,306.259277 
	C343.668060,299.607452 359.192139,290.017975 362.231049,268.781860 
	C363.272125,261.506805 365.062927,254.123917 362.268890,246.182831 
	C359.555725,252.786972 357.060547,258.860535 354.247559,265.610413 
M136.080399,195.363663 
	C131.606094,193.578735 127.163757,191.707870 122.650154,190.028595 
	C115.473846,187.358643 105.366692,190.581650 102.480881,196.678787 
	C120.661766,209.027893 137.343903,223.701508 157.108459,234.355392 
	C158.306870,231.046188 158.182175,228.536865 157.905899,226.074982 
	C156.342331,212.141846 147.885925,202.977112 136.080399,195.363663 
M285.744598,249.759048 
	C292.765198,256.745819 298.289429,265.156738 305.802216,271.626526 
	C311.641479,266.743286 311.725342,266.251801 306.672607,261.948669 
	C295.638214,252.551163 284.666748,243.072235 273.420593,233.932922 
	C261.230408,224.026398 249.148163,225.324905 238.768600,237.182358 
	C232.543930,244.293320 229.433640,252.854980 227.398911,261.863647 
	C226.933975,263.922058 226.386276,266.428101 228.580719,267.995117 
	C230.722748,267.502655 230.799942,266.078461 230.718781,264.763367 
	C230.061676,254.116196 235.590790,246.395355 242.710297,239.480988 
	C247.031357,235.284424 252.303680,233.831421 258.293884,234.407196 
	C269.448669,235.479462 277.742584,241.618210 285.744598,249.759048 
M59.428249,173.629883 
	C66.838280,184.932159 73.837257,196.540283 83.211967,206.726334 
	C86.669754,203.745636 88.439926,200.343887 90.604324,197.262573 
	C91.505707,195.979355 91.326637,194.772919 89.970879,193.836334 
	C79.841568,186.838821 70.215904,179.094131 59.428249,173.629883 
M270.456970,458.775208 
	C272.658966,461.829132 275.501801,462.591370 278.619385,460.485474 
	C282.151825,458.099335 283.099579,454.681458 281.984772,450.506866 
	C281.061157,447.048157 279.748901,444.001495 275.616425,444.200531 
	C271.662476,444.390991 270.083405,447.425720 269.362701,450.849304 
	C268.848389,453.292480 268.891968,455.780670 270.456970,458.775208 
M229.261917,201.278854 
	C227.875702,199.614197 226.489502,197.949539 225.103302,196.284882 
	C227.502869,204.489792 230.603409,212.150696 233.677628,219.822159 
	C234.406006,221.639740 234.660416,223.744308 237.427505,223.720245 
	C239.636093,223.701019 240.601517,222.471848 241.515762,220.716125 
	C242.617691,218.599930 242.208267,217.120880 240.565582,215.454956 
	C236.474152,211.305618 232.969177,206.655869 229.261917,201.278854 
M215.253006,294.721649 
	C214.032059,297.629120 212.659363,300.483795 211.625504,303.456329 
	C210.044449,308.002106 211.320007,310.315094 216.001053,311.406281 
	C218.145477,311.906189 220.420303,312.130249 223.077255,310.913635 
	C221.733200,310.028687 220.897385,309.509918 220.094345,308.944580 
	C214.454300,304.973755 213.717896,302.733887 216.382904,296.318451 
	C217.588745,293.415680 218.963058,290.519043 220.704285,287.916260 
	C223.975052,283.027191 227.567978,278.353668 231.026932,273.590515 
	C224.383987,279.306976 219.291534,286.169006 215.253006,294.721649 
z"/>
<path fill="#000000" opacity="1.000000" stroke="none" 
	d="
M381.332581,89.893272 
	C381.474579,97.357574 379.703430,103.561768 374.028656,108.155312 
	C369.121490,112.127472 362.434174,111.548874 356.185211,106.630295 
	C350.493134,102.150032 348.547852,95.411865 351.265961,89.878487 
	C352.760010,86.836952 355.033661,85.321098 358.472504,85.724419 
	C360.015991,85.905434 361.498901,86.235802 362.045380,87.929962 
	C362.564728,89.540062 361.864532,90.800804 360.731812,91.955605 
	C357.298340,95.455986 357.671539,100.462082 361.575653,103.962318 
	C364.751129,106.809235 370.044830,106.195755 373.182556,102.612358 
	C374.881927,100.671593 375.894592,98.296303 376.278717,95.866165 
	C378.136749,84.110756 376.258789,73.279427 367.633667,64.383911 
	C358.203430,54.658020 345.564026,56.424618 338.963715,68.252403 
	C332.858093,79.193764 330.473877,99.351250 344.519440,109.661934 
	C345.173645,110.142159 345.681671,110.857956 346.159668,111.533463 
	C346.952423,112.653877 347.626068,113.947861 346.696411,115.212006 
	C345.637939,116.651314 344.267548,115.768806 343.082672,115.265213 
	C340.230530,114.052994 337.879456,111.986343 336.355896,109.457924 
	C331.370819,101.185013 323.199341,95.850067 316.872253,87.451660 
	C317.270020,94.685738 318.738220,100.916351 318.372742,107.271645 
	C318.105927,111.910736 317.713013,116.485115 313.070068,118.864746 
	C308.091644,121.416351 303.655457,119.441376 299.699127,116.233780 
	C295.303284,112.669853 291.115265,108.845734 286.663055,105.356537 
	C283.686005,103.023445 280.524323,100.781166 276.031281,101.084808 
	C276.319885,107.046822 278.877197,112.379753 279.799500,118.061890 
	C281.306335,127.344986 277.790283,133.151077 268.816589,135.352264 
	C268.178406,135.508820 267.411102,135.599548 266.964417,136.006729 
	C260.753265,141.668442 254.417404,141.128586 247.940094,135.880386 
	C247.101837,140.031677 247.354004,143.703323 246.357834,147.253387 
	C242.695847,160.303604 230.112411,164.765533 220.650711,155.177856 
	C208.999695,143.371704 200.169693,129.635437 202.727005,111.654594 
	C203.264313,107.876602 203.784439,104.008766 208.412598,102.581589 
	C213.398361,101.044144 218.006638,101.479530 222.079117,104.774902 
	C224.183334,106.477608 225.366608,109.322121 223.680740,111.429932 
	C221.620178,114.006233 219.289825,112.043350 217.315384,110.300621 
	C213.608261,107.028549 212.232147,107.336342 210.113785,111.968407 
	C208.489182,115.520821 208.072525,119.101135 208.965805,123.109505 
	C210.789886,131.294556 214.347076,138.487183 219.838409,144.725067 
	C222.661316,147.931747 225.966522,150.641739 230.681335,149.421082 
	C235.255188,148.236923 237.292068,144.514069 238.455414,140.385773 
	C241.109848,130.965988 239.568390,121.969154 235.401047,113.255562 
	C232.232040,106.629379 231.097778,100.061333 233.467697,92.558701 
	C235.341354,86.627121 238.965378,83.999474 244.279968,82.994774 
	C249.788513,81.953392 254.464127,83.736160 257.676331,88.621498 
	C264.786285,99.434807 268.783539,111.260368 269.310272,124.222519 
	C269.364258,125.551613 269.386963,126.883270 269.496765,128.207718 
	C269.519073,128.476791 269.868469,128.718719 270.281433,129.247818 
	C273.538818,128.498718 274.393280,125.991287 274.623444,123.061775 
	C275.038116,117.784180 273.480225,112.825386 271.855255,107.939781 
	C268.961243,99.238518 265.605713,90.680275 260.869476,82.816193 
	C258.591003,79.033020 259.284210,76.346802 262.118622,73.562714 
	C266.351440,69.405006 271.367828,66.888870 277.333252,67.165970 
	C289.057739,67.710594 295.628876,79.692657 289.752380,90.713005 
	C287.189026,95.520164 287.984924,98.122749 291.954529,100.983070 
	C295.052551,103.215378 297.714935,106.059937 301.252136,107.678902 
	C307.144073,110.375633 311.183563,108.091995 311.667480,101.618561 
	C312.484344,90.690590 308.706787,81.344109 301.371948,73.382034 
	C298.102081,69.832497 294.556976,66.537079 291.268982,63.003323 
	C289.956665,61.592903 288.380737,60.175606 288.513458,57.550167 
	C292.509705,55.905437 295.117340,58.539124 297.300873,60.960777 
	C304.340271,68.767799 311.636505,76.278053 319.856384,82.856529 
	C321.138062,83.882256 322.366577,84.974442 323.576965,85.999718 
	C325.429688,85.049622 325.399200,83.470795 325.704041,82.049248 
	C327.467194,73.827568 331.463989,66.879555 337.491455,61.022667 
	C350.589722,48.295013 368.252777,51.856232 377.567749,69.071182 
	C381.037201,75.483017 381.645874,82.345306 381.332581,89.893272 
M263.693756,113.948074 
	C262.236847,105.151703 259.665192,97.007835 250.472198,93.211227 
	C245.683334,91.233467 242.933182,92.669807 241.242065,97.499870 
	C239.256058,103.172165 240.875366,108.660576 242.080322,114.139954 
	C243.465897,120.440613 245.965820,126.151039 251.560638,129.970734 
	C254.377029,131.893555 257.358368,132.369904 260.508362,130.918335 
	C263.564911,129.509811 264.075104,126.799751 263.988525,123.820137 
	C263.901764,120.832802 263.821167,117.845284 263.693756,113.948074 
M268.073364,84.672638 
	C269.028229,86.782242 269.922821,88.921715 270.950531,90.995224 
	C273.065643,95.262634 275.219116,95.873367 279.169037,93.424278 
	C283.304565,90.860092 285.157318,85.724136 283.341217,81.858635 
	C281.636841,78.230804 275.147736,76.071793 270.626709,77.690529 
	C267.536163,78.797073 265.820557,80.607796 268.073364,84.672638 
z"/>
<path fill="#000000" opacity="1.000000" stroke="none" 
	d="
M150.273651,86.541397 
	C146.367752,75.763206 139.766693,66.920921 134.149918,57.533302 
	C132.359253,54.540478 130.332001,51.689861 128.513031,48.713055 
	C127.482994,47.027344 126.051147,44.871063 128.085724,43.363575 
	C130.341766,41.692009 131.711472,44.074127 132.785599,45.625153 
	C137.137436,51.909149 141.296967,58.326263 145.643524,64.614021 
	C149.797867,70.623741 154.286987,76.410995 158.240433,82.546394 
	C159.895798,85.115395 163.626801,88.449455 158.582413,91.286232 
	C153.961563,93.884811 152.006622,90.489220 150.273651,86.541397 
z"/>
<path fill="#000000" opacity="1.000000" stroke="none" 
	d="
M130.347107,130.322586 
	C137.348312,124.385437 144.153717,118.759438 149.445572,111.582520 
	C150.632065,109.973373 152.119492,107.889771 154.270508,109.489777 
	C156.278793,110.983604 155.007629,113.280624 153.964188,114.907440 
	C150.852295,119.759270 145.930191,122.806847 141.736771,126.562569 
	C135.541229,132.111435 129.162552,137.461899 122.740929,142.750015 
	C118.845978,145.957474 115.347908,149.389862 113.068039,153.991577 
	C112.227066,155.688995 111.009071,157.393372 107.884300,157.190033 
	C112.511017,145.554321 121.286835,138.048248 130.347107,130.322586 
z"/>
<path fill="#000000" opacity="1.000000" stroke="none" 
	d="
M155.745132,135.656509 
	C151.991425,143.769180 150.119278,152.371552 145.139282,160.141006 
	C143.085892,157.463318 144.152710,155.910080 144.604309,154.395737 
	C148.653091,140.819061 154.651062,127.974815 159.574554,114.725777 
	C160.098862,113.314903 160.724945,111.622452 162.659927,112.326370 
	C164.316757,112.929085 163.690399,114.536263 163.452591,115.813263 
	C162.154755,122.782303 158.367447,128.789703 155.745132,135.656509 
z"/>
<path fill="#000000" opacity="1.000000" stroke="none" 
	d="
M207.214432,70.110451 
	C208.242355,72.523758 206.335648,73.216156 205.165131,74.210625 
	C196.943878,81.195480 188.735703,88.198273 180.389221,95.031509 
	C178.116440,96.892227 174.904221,100.417351 172.476501,96.957527 
	C170.380890,93.971031 174.533173,92.043465 176.920975,90.474197 
	C186.074295,84.458679 195.446228,78.754364 203.513184,71.239571 
	C204.487045,70.332367 205.408783,69.297058 207.214432,70.110451 
z"/>
<path fill="#000000" opacity="1.000000" stroke="none" 
	d="
M169.518875,84.891869 
	C168.678162,86.649506 167.836334,88.210442 166.035217,87.337402 
	C163.794571,86.251305 163.975403,84.059059 164.617050,82.092545 
	C167.766830,72.438972 169.032867,62.369339 171.249710,52.510998 
	C171.795029,50.085987 172.199463,47.628559 172.775009,45.211357 
	C173.109619,43.805965 173.353439,41.938416 175.489136,42.532871 
	C177.282562,43.032063 176.709335,44.602825 176.452637,45.889385 
	C174.993042,53.204659 173.409164,60.497532 172.096786,67.839005 
	C171.108414,73.367836 170.464096,78.958160 169.518875,84.891869 
z"/>
<path fill="#000000" opacity="1.000000" stroke="none" 
	d="
M146.035797,101.894943 
	C147.443436,104.220375 146.208267,104.893936 144.504684,105.149284 
	C142.684982,105.422035 140.866745,105.333267 139.095474,104.727394 
	C130.308334,101.721687 121.319084,99.496674 112.225388,97.637123 
	C110.367661,97.257240 108.262497,96.954651 106.391220,93.571960 
	C120.437828,94.980064 133.093277,98.319176 146.035797,101.894943 
z"/>
<path fill="#000000" opacity="1.000000" stroke="none" 
	d="
M180.170090,108.719284 
	C185.730484,110.386124 190.779739,112.409538 196.398376,113.175041 
	C195.750992,116.003914 193.803543,116.235321 191.829819,116.276459 
	C187.095215,116.375145 182.652756,115.180679 178.492401,112.967789 
	C177.115860,112.235611 174.728912,111.979980 175.183533,109.883057 
	C175.767609,107.189102 178.154541,108.835724 180.170090,108.719284 
z"/>
<path fill="#000000" opacity="1.000000" stroke="none" 
	d="
M166.717529,99.223602 
	C167.671249,100.634209 168.629105,101.688873 168.935883,102.907455 
	C169.441452,104.915535 170.215057,107.375565 167.959717,108.721855 
	C165.961929,109.914398 164.149582,108.537323 162.774902,107.042938 
	C160.726501,104.816162 159.798996,102.123650 161.372284,99.370201 
	C162.607910,97.207680 164.600708,97.490082 166.717529,99.223602 
z"/>
</svg>